<svg width="316" height="213" xmlns="http://www.w3.org/2000/svg" preserveAspectRatio="xMidYMid meet">
 <!-- Created with Method Draw - http://github.com/duopixel/Method-Draw/ -->
 <g>
  <title>Layer 1</title>
  <g id="svg_1" fill="#25a05a" transform="translate(0,288) scale(0.10000000149011612,-0.10000000149011612) ">
   <path id="svg_8" d="m885.005807,2858.997399c-55,-18 -75,-32 -135,-93c-81,-81 -120,-153 -159,-289c-91,-315 -98,-704 -19,-1025c14,-57 23,-106 19,-109c-11,-11 -56,28 -76,68c-41,78 -88,264 -115,444c-46,315 -71,382 -163,426c-56,27 -143,30 -188,6c-53,-28 -51,-44 16,-104c101,-92 125,-147 185,-432c43,-199 60,-262 92,-324c58,-117 173,-183 269,-157c25,7 49,21 55,31c6,12 7,97 3,231c-17,562 73,1009 242,1197c49,55 110,87 148,77c42,-10 59,-48 58,-129c-1,-122 -56,-262 -134,-344l-30,-31l25,-26c37,-37 103,-36 147,0c138,117 174,368 73,516c-54,80 -186,108 -313,67z"/>
   <path id="svg_9" d="m1600.005807,2240.997399c-126,-33 -214,-131 -264,-296c-75,-246 -137,-382 -198,-436c-30,-25 -42,-30 -69,-26c-19,3 -45,14 -59,24c-35,25 -75,109 -75,156l0,39l35,-6c95,-18 193,57 233,177c36,110 25,183 -34,241c-88,85 -245,62 -329,-48c-86,-112 -106,-356 -40,-486c14,-28 44,-68 66,-90c71,-69 201,-100 268,-65c43,22 98,90 138,173c20,39 40,72 44,72c4,0 13,-16 19,-36c17,-52 66,-102 110,-114c43,-11 94,-4 111,16c6,8 15,14 18,14c7,0 2,-181 -4,-188c-2,-2 -25,4 -52,13c-28,10 -81,17 -129,17c-67,1 -91,-4 -138,-25c-77,-36 -151,-113 -171,-179c-17,-59 -19,-146 -5,-198c37,-133 173,-223 338,-222c163,1 251,120 268,365c4,53 9,97 12,97c3,0 43,-30 90,-66c157,-119 346,-196 477,-192c29,0 37,3 20,5c-144,17 -248,64 -400,179c-55,42 -122,92 -149,112l-49,36l6,100c11,175 34,271 94,390c19,37 32,74 29,81c-7,19 -75,26 -110,11c-39,-16 -59,-45 -90,-131c-24,-66 -64,-135 -79,-135c-17,0 -37,73 -37,137c0,80 30,197 68,267c31,57 104,136 126,136c8,0 20,-16 26,-35c11,-32 10,-60 -2,-155c-3,-22 1,-25 34,-28c72,-6 118,49 118,141c0,65 -28,113 -81,139c-41,21 -140,31 -184,19zm-484,-163c16,-30 6,-121 -22,-193c-37,-95 -139,-186 -163,-147c-8,13 29,179 53,244c38,99 104,148 132,96zm432,-777c26,-10 27,-12 27,-91c0,-151 -46,-302 -106,-349c-75,-59 -175,-27 -225,71c-31,61 -30,169 4,239c37,78 70,111 134,135c41,15 119,13 166,-5z"/>
   <path id="svg_10" d="m2439.005807,2219.997399c-35,-14 -37,-28 -9,-64c47,-61 44,-150 -10,-368c-37,-148 -48,-225 -35,-263c16,-49 59,-85 106,-88l39,-2l6,100c4,55 14,134 23,175c23,99 94,245 143,292c38,37 113,76 113,59c0,-5 -16,-36 -35,-69c-78,-131 -143,-325 -166,-496c-19,-147 3,-248 67,-312c60,-61 151,-79 250,-49c69,20 127,73 165,151c76,155 38,274 -88,274c-62,0 -73,-13 -52,-63c8,-17 13,-61 13,-97c-3,-162 -120,-278 -188,-187c-19,25 -21,42 -21,155c0,87 6,152 19,206c36,157 104,340 168,454c29,51 30,54 13,72c-59,66 -220,37 -306,-54c-18,-20 -35,-34 -37,-32c-2,3 -4,33 -5,68c-2,75 -23,113 -72,134c-38,16 -69,17 -101,4z"/>
   <path id="svg_11" d="m2112.005807,2195.997399c-67,-25 -122,-83 -176,-186c-54,-104 -75,-184 -69,-268c11,-156 113,-240 222,-183c44,23 56,20 56,-13c0,-49 63,-101 130,-108c30,-3 35,0 32,17c-14,80 -13,158 2,210c63,216 69,273 31,311c-23,22 -25,31 -19,73c7,56 -13,112 -48,135c-35,22 -116,29 -161,12zm153,-111c17,-20 3,-76 -21,-82c-14,-4 -19,-14 -19,-39c0,-92 -52,-254 -96,-301c-35,-37 -46,-40 -68,-17c-38,38 5,262 73,374c43,73 101,102 131,65z"/>
   <path id="svg_12" d="m1929.005807,1321.997399c-64,-23 -104,-48 -104,-67c0,-22 24,-18 80,11c29,15 73,28 108,31c98,9 172,-21 325,-129c28,-21 77,-47 107,-57c54,-19 193,-31 198,-17c1,4 -35,8 -80,9c-102,3 -146,22 -243,102c-78,64 -134,95 -214,119c-69,20 -113,20 -177,-2z"/>
   <path id="svg_13" d="m1762.005807,1093.997399c-12,-13 -8,-79 9,-128c22,-64 77,-119 155,-155c75,-35 194,-61 277,-61c76,0 199,32 260,67c73,43 146,120 165,177c24,69 20,92 -4,29c-24,-63 -106,-156 -163,-185c-152,-78 -355,-78 -511,-1c-97,48 -136,102 -145,198c-4,43 -9,61 -20,63c-9,1 -19,0 -23,-4z"/>
  </g>
 </g>
</svg>